<?xml version="1.0" encoding="utf-8"?>
<!-- Generator: Adobe Illustrator 16.2.1, SVG Export Plug-In . SVG Version: 6.00 Build 0)  -->
<!DOCTYPE svg PUBLIC "-//W3C//DTD SVG 1.1//EN" "http://www.w3.org/Graphics/SVG/1.1/DTD/svg11.dtd">
<svg version="1.1" id="Layer_1" xmlns="http://www.w3.org/2000/svg" xmlns:xlink="http://www.w3.org/1999/xlink" x="0px" y="0px"
	 width="20px" height="20px" viewBox="0 0 20 20" enable-background="new 0 0 20 20" xml:space="preserve">
<g opacity="0.5">
	<path fill="#FFFFFF" d="M0.652,17.116c0-0.326,0.051-0.62,0.154-0.883s0.237-0.485,0.406-0.667
		c0.169-0.184,0.363-0.324,0.585-0.424c0.221-0.1,0.45-0.148,0.687-0.148c0.25,0,0.467,0.047,0.656,0.141s0.376,0.221,0.563,0.381
		L3.679,14.77v-1.55h0.679v5.903H3.796l-0.059-0.531H3.713c-0.167,0.172-0.363,0.318-0.594,0.443
		c-0.23,0.125-0.468,0.187-0.717,0.187c-0.265,0-0.504-0.046-0.717-0.142c-0.213-0.093-0.396-0.23-0.552-0.409
		c-0.155-0.181-0.273-0.399-0.356-0.659C0.694,17.752,0.652,17.453,0.652,17.116z M1.358,17.107c0,0.486,0.104,0.865,0.31,1.137
		c0.208,0.271,0.5,0.406,0.875,0.406c0.398,0,0.776-0.202,1.136-0.605v-2.006c-0.183-0.172-0.361-0.293-0.536-0.365
		c-0.173-0.072-0.349-0.107-0.525-0.107c-0.178,0-0.342,0.037-0.494,0.111c-0.151,0.074-0.286,0.18-0.397,0.314
		c-0.114,0.136-0.204,0.298-0.27,0.486C1.39,16.666,1.358,16.876,1.358,17.107z"/>
	<path fill="#FFFFFF" d="M5.802,18.078c0-0.227,0.053-0.425,0.162-0.593c0.106-0.169,0.278-0.313,0.514-0.436
		c0.235-0.122,0.537-0.221,0.907-0.298c0.371-0.078,0.816-0.139,1.334-0.183c-0.004-0.138-0.026-0.269-0.064-0.39
		c-0.04-0.121-0.1-0.229-0.183-0.319c-0.083-0.091-0.192-0.165-0.329-0.22c-0.134-0.056-0.298-0.083-0.493-0.083
		c-0.266,0-0.52,0.052-0.764,0.153c-0.243,0.103-0.458,0.211-0.645,0.328l-0.266-0.465c0.1-0.066,0.217-0.134,0.353-0.203
		c0.135-0.068,0.279-0.131,0.432-0.188c0.151-0.055,0.312-0.1,0.484-0.136c0.171-0.036,0.346-0.054,0.522-0.054
		c0.553,0,0.963,0.15,1.231,0.451c0.267,0.302,0.401,0.703,0.401,1.207v2.471H8.843l-0.058-0.548H8.76
		c-0.227,0.177-0.477,0.329-0.75,0.456s-0.555,0.19-0.842,0.19c-0.187,0-0.364-0.026-0.53-0.079
		c-0.167-0.052-0.311-0.127-0.435-0.223c-0.125-0.098-0.223-0.217-0.295-0.357C5.836,18.422,5.802,18.26,5.802,18.078z
		 M6.464,18.028c0,0.116,0.024,0.214,0.075,0.294c0.048,0.08,0.113,0.146,0.194,0.199c0.08,0.053,0.173,0.091,0.282,0.115
		c0.107,0.025,0.22,0.038,0.335,0.038c0.231,0,0.46-0.051,0.685-0.153c0.223-0.102,0.451-0.25,0.682-0.443v-1.061
		c-0.43,0.032-0.791,0.079-1.08,0.14c-0.292,0.062-0.523,0.134-0.697,0.22c-0.175,0.086-0.297,0.184-0.369,0.291
		S6.464,17.896,6.464,18.028z"/>
	<path fill="#FFFFFF" d="M11.812,15.648h-1.136v-0.514l1.162-0.041l0.09-1.128h0.564v1.128h1.981v0.555h-1.981v1.916
		c0,0.182,0.017,0.341,0.05,0.477c0.033,0.135,0.089,0.25,0.165,0.344c0.078,0.094,0.184,0.164,0.315,0.211
		c0.134,0.047,0.296,0.07,0.49,0.07c0.193,0,0.367-0.016,0.521-0.049c0.155-0.033,0.304-0.078,0.447-0.133l0.149,0.497
		c-0.182,0.066-0.384,0.123-0.604,0.17c-0.222,0.047-0.442,0.07-0.664,0.07c-0.293,0-0.539-0.04-0.738-0.12s-0.357-0.193-0.477-0.34
		c-0.118-0.146-0.203-0.322-0.257-0.526c-0.053-0.204-0.078-0.431-0.078-0.681V15.648z"/>
	<path fill="#FFFFFF" d="M15.749,18.078c0-0.227,0.054-0.425,0.161-0.593c0.108-0.169,0.28-0.313,0.515-0.436
		c0.235-0.122,0.537-0.221,0.908-0.298c0.37-0.078,0.815-0.139,1.335-0.183c-0.006-0.138-0.028-0.269-0.067-0.39
		c-0.038-0.121-0.1-0.229-0.182-0.319c-0.083-0.091-0.192-0.165-0.327-0.22c-0.137-0.056-0.301-0.083-0.494-0.083
		c-0.265,0-0.52,0.052-0.762,0.153c-0.244,0.103-0.46,0.211-0.646,0.328l-0.267-0.465c0.1-0.066,0.218-0.134,0.353-0.203
		c0.136-0.068,0.279-0.131,0.432-0.188c0.151-0.055,0.313-0.1,0.484-0.136c0.172-0.036,0.345-0.054,0.521-0.054
		c0.554,0,0.964,0.15,1.232,0.451c0.269,0.302,0.402,0.703,0.402,1.207v2.471h-0.557l-0.058-0.548h-0.024
		c-0.227,0.177-0.478,0.329-0.75,0.456c-0.274,0.127-0.555,0.19-0.843,0.19c-0.187,0-0.364-0.026-0.529-0.079
		c-0.167-0.052-0.312-0.127-0.437-0.223c-0.123-0.098-0.222-0.217-0.293-0.357C15.785,18.422,15.749,18.26,15.749,18.078z
		 M16.412,18.028c0,0.116,0.025,0.214,0.075,0.294s0.114,0.146,0.194,0.199s0.175,0.091,0.282,0.115
		c0.107,0.025,0.22,0.038,0.335,0.038c0.233,0,0.461-0.051,0.684-0.153c0.225-0.102,0.453-0.25,0.686-0.443v-1.061
		c-0.432,0.032-0.793,0.079-1.083,0.14c-0.29,0.062-0.521,0.134-0.696,0.22c-0.174,0.086-0.297,0.184-0.369,0.291
		C16.448,17.775,16.412,17.896,16.412,18.028z"/>
</g>
<g opacity="0.5">
	<path d="M-30.454,5.028h0.966v4.715c0,0.391,0.04,0.723,0.12,0.994c0.081,0.272,0.192,0.492,0.334,0.656
		c0.142,0.165,0.308,0.285,0.499,0.362c0.192,0.076,0.403,0.114,0.634,0.114c0.229,0,0.439-0.038,0.631-0.114
		c0.192-0.077,0.36-0.197,0.506-0.362c0.145-0.164,0.26-0.384,0.339-0.656c0.08-0.271,0.12-0.604,0.12-0.994V5.028h0.932V9.72
		c0,0.545-0.064,1.006-0.19,1.38c-0.126,0.377-0.301,0.684-0.522,0.926c-0.222,0.242-0.489,0.417-0.8,0.523
		c-0.311,0.107-0.65,0.16-1.017,0.16c-0.369,0-0.71-0.053-1.023-0.16c-0.314-0.106-0.586-0.281-0.811-0.523
		c-0.227-0.242-0.403-0.549-0.529-0.926c-0.127-0.374-0.189-0.835-0.189-1.38V5.028z"/>
	<path d="M-19.197,12.571l-1.817-3.185h-1.345v3.185h-0.956V5.028h2.346c0.384,0,0.736,0.037,1.058,0.109
		c0.322,0.073,0.601,0.193,0.833,0.362c0.235,0.169,0.417,0.388,0.547,0.655c0.131,0.269,0.196,0.598,0.196,0.989
		c0,0.59-0.154,1.062-0.461,1.415c-0.307,0.352-0.716,0.594-1.23,0.724l1.922,3.288H-19.197z M-22.359,8.604h1.252
		c0.59,0,1.041-0.12,1.352-0.362s0.465-0.606,0.465-1.098c0-0.499-0.154-0.848-0.465-1.046c-0.311-0.2-0.761-0.299-1.352-0.299
		h-1.252V8.604z"/>
	<path d="M-16.473,11.756h1.874V5.833h-1.874V5.028h4.714v0.805h-1.874v5.923h1.874v0.815h-4.714V11.756z"/>
</g>
<g>
	<path fill="#FFFFFF" d="M2.474,5.769H3.94V1.134H2.474v-0.63h3.69v0.63H4.697v4.635h1.467v0.639h-3.69V5.769z"/>
	<path fill="#FFFFFF" d="M7.748,0.504h0.828l0.837,2.511l0.297,0.954h0.036l0.288-0.954l0.828-2.511h0.828v5.904h-0.639V3.087
		c0-0.12,0.003-0.261,0.009-0.423c0.006-0.162,0.014-0.325,0.022-0.49s0.018-0.327,0.027-0.486c0.009-0.159,0.02-0.298,0.031-0.418
		h-0.027l-0.387,1.26l-0.81,2.277H9.512l-0.81-2.277l-0.396-1.26H8.278c0.006,0.12,0.015,0.26,0.027,0.418
		C8.317,1.846,8.33,2.008,8.342,2.173c0.012,0.165,0.021,0.329,0.027,0.49c0.006,0.162,0.009,0.303,0.009,0.423v3.321h-0.63V0.504z"
		/>
	<path fill="#FFFFFF" d="M12.896,3.456c0-0.474,0.064-0.901,0.193-1.282s0.31-0.702,0.54-0.963c0.23-0.261,0.508-0.462,0.828-0.603
		c0.32-0.141,0.674-0.212,1.057-0.212c0.199,0,0.379,0.021,0.541,0.063c0.162,0.042,0.311,0.098,0.445,0.167
		c0.135,0.069,0.256,0.146,0.359,0.229c0.105,0.084,0.199,0.171,0.283,0.261l-0.422,0.477c-0.145-0.156-0.309-0.285-0.496-0.387
		c-0.186-0.102-0.422-0.153-0.711-0.153c-0.275,0-0.525,0.056-0.75,0.167c-0.227,0.111-0.42,0.27-0.582,0.477
		s-0.285,0.458-0.373,0.751c-0.086,0.294-0.131,0.624-0.131,0.99c0,0.372,0.041,0.707,0.123,1.004c0.08,0.297,0.197,0.55,0.35,0.76
		c0.154,0.21,0.344,0.372,0.572,0.486c0.229,0.114,0.486,0.171,0.773,0.171c0.211,0,0.406-0.032,0.586-0.095
		s0.326-0.148,0.439-0.256V3.969h-1.178V3.348h1.871v2.484c-0.191,0.192-0.438,0.354-0.738,0.486
		c-0.299,0.132-0.641,0.198-1.025,0.198c-0.371,0-0.713-0.069-1.025-0.207c-0.312-0.138-0.582-0.337-0.811-0.598
		c-0.229-0.261-0.404-0.582-0.531-0.963C12.959,4.366,12.896,3.936,12.896,3.456z"/>
</g>
<rect y="-40" width="8" height="8"/>
<polygon points="4.031,-32 10.096,-32 7.063,-28.459 4.031,-24.938 0.999,-28.469 -2.034,-32 "/>
<polygon fill="#FFFFFF" points="11,11 11,7 9,7 9,11 7.223,11 8.627,12.512 10.031,14.085 11.435,12.546 12.839,11 "/>
<polygon points="29,-18 29,-22 27,-22 27,-18 25.223,-18 26.627,-16.488 28.031,-14.915 29.435,-16.454 30.839,-18 "/>
</svg>
